<?xml version="1.0" encoding="UTF-8" standalone="no"?><!DOCTYPE svg PUBLIC "-//W3C//DTD SVG 1.1//EN" "http://www.w3.org/Graphics/SVG/1.1/DTD/svg11.dtd"><svg width="100%" height="100%" viewBox="0 0 850 217" version="1.1" xmlns="http://www.w3.org/2000/svg" xmlns:xlink="http://www.w3.org/1999/xlink" xml:space="preserve" xmlns:serif="http://www.serif.com/" style="fill-rule:evenodd;clip-rule:evenodd;stroke-linecap:round;stroke-linejoin:round;"><g id="HEIC-Converter-Logo" serif:id="HEIC Converter Logo"><path d="M121.576,39.616c-4.101,0 -8.818,2.876 -8.818,7.394l-0,52.374l-95.326,0l0,-52.374c0,-4.518 -4.512,-7.394 -8.613,-7.394c-4.307,0 -8.819,2.876 -8.819,7.394l-0,128.958c-0,4.518 4.512,7.394 8.819,7.394c4.101,-0 8.613,-2.876 8.613,-7.394l0,-61.822l95.326,0l-0,61.822c-0,4.518 4.717,7.394 8.818,7.394c4.102,-0 8.614,-2.876 8.614,-7.394l-0,-128.958c-0,-4.518 -4.512,-7.394 -8.614,-7.394Z" style="fill-rule:nonzero;"/><path d="M174.348,59.311c0.411,-0.206 0.822,-0.411 1.233,-0.411c10.885,-3.083 21.771,-4.521 32.862,-4.521l2.259,-0c13.966,-0 27.522,1.438 39.023,7.192c1.233,0.617 2.876,1.028 4.314,1.028c2.875,-0 5.956,-1.233 7.599,-3.699c0.821,-1.233 1.027,-2.466 1.027,-3.699c-0,-2.668 -1.643,-5.333 -4.108,-6.564c-15.199,-6.356 -31.835,-9.226 -48.471,-9.226c-13.351,-0 -26.701,1.845 -39.429,5.126c-7.794,3.075 -11.895,4.716 -13.741,10.253l-0,114.425c0.205,4.514 3.692,6.154 7.588,8.409c12.925,5.536 27.508,7.586 41.885,7.586c18.074,0 36.353,-1.845 51.963,-9.636c2.67,-1.23 4.313,-3.691 4.313,-6.359c-0,-1.233 -0.411,-2.466 -1.233,-3.699c-1.643,-2.465 -4.723,-3.698 -7.599,-3.698c-1.438,-0 -3.081,0.411 -4.313,1.027c-5.135,2.671 -9.242,3.699 -12.939,4.521c-11.707,2.26 -20.539,3.082 -28.96,3.082c-10.886,0 -21.36,-0.822 -30.603,-4.11l-2.67,-1.027l0,-49.727l58.125,-0c4.108,-0 8.626,-2.87 8.626,-7.381c0,-4.511 -4.518,-7.381 -8.626,-7.381l-58.125,-0l0,-41.511Z" style="fill-rule:nonzero;"/><path d="M292.87,183.362c4.307,-0 8.818,-2.67 8.818,-7.393l0,-128.959c0,-4.518 -4.511,-7.394 -8.818,-7.394c-4.102,0 -8.614,2.876 -8.614,7.394l0,128.959c0,4.723 4.512,7.393 8.614,7.393Z" style="fill-rule:nonzero;"/><path d="M336.2,152.989c14.371,20.523 38.812,32.837 63.664,32.837c19.922,0 40.255,-7.183 54.838,-21.549c1.438,-1.437 2.465,-3.079 2.465,-5.131c-0,-4.31 -4.108,-7.594 -9.037,-7.594c-5.135,0 -10.064,6.568 -14.994,9.646c-9.448,5.963 -20.333,9.866 -33.067,9.866c-33.684,0 -59.562,-28.555 -59.562,-59.164c-0,-33.691 28.959,-58.343 59.562,-58.343c15.609,-0 29.37,5.136 41.283,16.024c1.643,1.438 3.902,2.26 6.161,2.26c4.108,-0 8.832,-2.671 8.832,-7.396c0,-9.039 -23.003,-19.5 -33.478,-22.575c-7.394,-2.256 -14.993,-3.281 -22.593,-3.281c-39.023,0 -76.994,28.938 -76.994,73.106c-0,15.201 4.101,28.965 12.92,41.291l-0,0.003Z" style="fill-rule:nonzero;"/><path d="M473.816,183.362c4.923,-0 10.256,-3.487 10.256,-9.024c0,-5.333 -5.333,-8.819 -10.256,-8.819c-5.129,-0 -10.462,3.486 -10.462,8.819c-0,5.537 5.333,9.024 10.462,9.024Z" style="fill-rule:nonzero;"/><path d="M686.843,81.246c0,9.905 8.15,18.055 18.055,18.055c9.904,-0 18.055,-8.15 18.055,-18.055c-0,-9.904 -8.151,-18.055 -18.055,-18.055c-9.905,0 -18.055,8.151 -18.055,18.055m134.751,-0.09c-59.67,-8.197 -102.099,36.109 -98.641,94.877" style="fill:none;fill-rule:nonzero;stroke:#000;stroke-width:13.54px;"/><path d="M659.761,117.951c25.096,-3.475 52.819,11.673 64.997,31" style="fill:none;fill-rule:nonzero;stroke:#000;stroke-width:13.54px;"/><path d="M653.957,83.954c-0,-15.166 -0,-22.749 2.952,-28.544c2.596,-5.095 6.74,-9.239 11.834,-11.835c5.796,-2.952 13.379,-2.952 28.545,-2.952l87.439,0c15.166,0 22.749,0 28.544,2.952c5.092,2.598 9.232,6.741 11.826,11.835c2.961,5.795 2.961,13.378 2.961,28.544l0,48.748c0,15.166 0,22.749 -2.952,28.544c-2.596,5.095 -6.74,9.239 -11.835,11.835c-5.795,2.952 -13.378,2.952 -28.544,2.952l-87.439,0c-15.166,0 -22.749,0 -28.545,-2.952c-5.091,-2.597 -9.232,-6.741 -11.825,-11.835c-2.961,-5.795 -2.961,-13.378 -2.961,-28.544l-0,-48.748Z" style="fill:none;fill-rule:nonzero;stroke:#000;stroke-width:13.54px;"/><path d="M553.565,97.625l14.583,14.583l-14.583,14.583" style="fill:none;fill-rule:nonzero;stroke:#000;stroke-width:6.25px;"/><path d="M521.273,101.375c0,-9.334 0,-14 1.817,-17.567c1.597,-3.136 4.148,-5.686 7.283,-7.283c3.567,-1.817 8.234,-1.817 17.567,-1.817l21.667,-0c9.333,-0 14,-0 17.566,1.817c3.136,1.597 5.686,4.147 7.284,7.283c1.816,3.567 1.816,8.233 1.816,17.567l0,21.666c0,9.334 0,14 -1.816,17.567c-1.598,3.135 -4.148,5.686 -7.284,7.283c-3.566,1.817 -8.233,1.817 -17.566,1.817l-21.667,-0c-9.333,-0 -14,-0 -17.567,-1.817c-3.135,-1.597 -5.686,-4.148 -7.283,-7.283c-1.817,-3.567 -1.817,-8.233 -1.817,-17.567l0,-21.666Z" style="fill:none;fill-rule:nonzero;stroke:#000;stroke-width:6.25px;"/></g></svg>